<svg class="img-fluid" id="outputsvg" xmlns="http://www.w3.org/2000/svg" style="transform: none; transform-origin: 50% 50%; cursor: move;" width="100" height="100" viewBox="0 0 12800 12800"><g id="l2quZcU8tn0Wp2y2bhUHrAB" fill="rgb(26,26,26)" style="transform: none;"><g><path id="pZI1Fxaf6" d="M7650 11091 c-36 -9 -96 -33 -135 -53 -80 -41 -193 -78 -238 -78 -16 0 -79 16 -139 35 -150 49 -232 58 -434 52 -124 -4 -198 -2 -265 8 -52 8 -152 15 -224 15 -71 0 -252 5 -401 11 -358 15 -364 13 -552 -161 -118 -109 -126 -113 -213 -133 -114 -27 -171 -29 -349 -13 -96 9 -242 16 -325 16 -148 0 -392 -21 -463 -39 -20 -5 -73 -15 -117 -22 -93 -14 -225 -60 -266 -92 -16 -12 -42 -32 -57 -44 -16 -12 -65 -38 -108 -58 -192 -88 -344 -234 -476 -457 -124 -210 -156 -240 -348 -324 -47 -20 -119 -59 -160 -87 -100 -67 -237 -191 -259 -236 -23 -45 -125 -329 -157 -435 -27 -90 -55 -141 -133 -244 -110 -144 -132 -178 -185 -282 -64 -125 -132 -321 -187 -543 -22 -89 -56 -211 -74 -272 -34 -109 -53 -218 -82 -449 -22 -186 -27 -345 -14 -510 6 -83 16 -227 22 -321 5 -93 12 -213 15 -265 5 -78 0 -130 -25 -285 -45 -271 -60 -415 -65 -621 -2 -100 -10 -200 -17 -222 -17 -59 -4 -109 40 -153 28 -28 44 -59 66 -126 26 -80 30 -105 36 -283 8 -213 17 -257 79 -380 40 -80 165 -212 233 -247 27 -13 99 -42 160 -64 212 -76 240 -103 369 -364 46 -93 96 -188 110 -211 63 -99 236 -208 378 -239 169 -36 217 -49 251 -66 19 -9 132 -113 250 -231 118 -117 233 -225 254 -240 76 -52 465 -204 611 -239 45 -10 135 -37 200 -58 66 -22 166 -49 224 -61 141 -28 203 -46 269 -79 111 -55 192 -82 298 -96 59 -8 140 -25 178 -36 39 -12 129 -36 201 -54 72 -19 187 -56 256 -84 156 -62 283 -101 329 -101 20 0 58 7 87 15 62 19 297 129 306 144 17 26 231 73 466 101 52 6 151 22 220 35 69 13 199 33 290 45 91 12 217 35 280 51 92 24 147 32 276 38 l160 8 105 48 c57 26 169 80 249 120 207 103 330 150 471 179 182 38 266 69 350 129 67 48 154 145 223 247 34 51 172 172 268 236 45 30 119 68 163 84 144 54 186 79 275 169 124 126 276 297 347 392 118 158 159 208 263 321 148 161 217 262 275 403 19 44 75 166 125 270 152 315 177 381 204 550 28 168 8 1725 -23 1891 -11 58 -52 172 -75 206 -8 13 -20 55 -26 93 -6 39 -29 133 -51 210 -32 112 -57 173 -126 305 -54 105 -90 188 -100 230 -8 36 -18 151 -23 255 -12 262 -28 307 -213 590 -101 153 -105 159 -213 284 -147 168 -204 217 -377 315 -150 86 -303 158 -389 184 -122 36 -277 137 -350 227 -46 57 -71 101 -141 255 -25 54 -56 98 -114 160 -43 47 -86 97 -95 111 -33 51 -130 149 -189 189 -74 51 -229 134 -289 155 -25 9 -81 23 -125 31 -44 9 -131 36 -193 60 -62 24 -116 44 -120 44 -5 0 -51 25 -103 56 -177 106 -277 125 -429 85z m222 -55 c35 -13 106 -49 157 -80 52 -31 98 -56 103 -56 4 0 58 -20 120 -44 62 -24 149 -51 193 -60 44 -8 100 -22 125 -31 60 -21 215 -104 289 -155 59 -40 156 -138 189 -189 9 -14 52 -64 95 -111 58 -62 89 -106 114 -160 70 -154 95 -198 141 -255 73 -90 228 -191 350 -227 86 -26 239 -98 389 -184 173 -98 230 -147 377 -315 108 -125 112 -131 213 -284 185 -283 201 -328 213 -590 5 -104 15 -219 23 -255 10 -42 46 -125 100 -230 69 -132 94 -193 126 -305 22 -77 45 -171 51 -210 6 -38 18 -80 26 -93 23 -34 64 -148 75 -206 17 -91 30 -515 34 -1111 5 -796 10 -764 -215 -1230 -50 -104 -106 -226 -125 -270 -58 -141 -127 -242 -275 -403 -104 -113 -145 -163 -263 -321 -71 -95 -223 -266 -347 -392 -89 -90 -131 -115 -275 -169 -44 -16 -118 -54 -163 -84 -96 -64 -234 -185 -268 -236 -69 -102 -156 -199 -223 -247 -84 -60 -168 -91 -350 -129 -141 -29 -264 -76 -471 -179 -80 -40 -192 -94 -249 -120 l-105 -48 -160 -8 c-129 -6 -184 -14 -276 -38 -63 -16 -189 -39 -280 -51 -91 -12 -221 -32 -290 -45 -69 -13 -165 -29 -215 -35 -264 -32 -418 -66 -475 -105 -50 -34 -273 -135 -313 -142 -43 -7 -114 14 -292 84 -77 30 -198 70 -270 88 -71 18 -161 42 -200 54 -38 11 -119 28 -178 36 -106 14 -187 41 -298 96 -66 33 -128 51 -269 79 -58 12 -158 39 -224 61 -65 21 -155 48 -200 58 -146 35 -535 187 -611 239 -21 15 -136 123 -254 240 -118 118 -231 222 -250 231 -34 17 -82 30 -251 66 -142 31 -315 140 -378 239 -14 23 -64 118 -110 211 -129 261 -157 288 -369 364 -61 22 -133 51 -160 64 -68 35 -193 167 -233 247 -62 123 -71 167 -79 380 -6 178 -10 203 -36 283 -22 69 -38 98 -68 128 -32 32 -38 43 -32 61 5 13 10 105 12 206 3 205 18 347 64 627 27 169 30 206 25 335 -5 165 -20 414 -37 637 -12 157 -11 185 15 409 25 215 52 363 84 464 17 52 49 168 71 257 55 221 123 417 187 543 53 104 75 138 185 282 78 103 106 154 133 244 32 106 134 390 157 435 22 45 159 169 259 236 41 28 113 67 160 87 192 84 224 114 348 324 132 223 284 369 476 457 43 20 92 46 108 58 15 12 41 32 57 44 41 32 173 78 266 92 44 7 97 17 117 22 61 16 306 39 411 39 54 0 180 -7 280 -16 200 -18 334 -14 441 11 93 22 99 26 218 135 119 110 140 125 215 151 51 17 70 18 262 9 113 -5 272 -10 354 -10 83 0 192 -7 250 -16 79 -12 141 -14 272 -9 204 7 274 -1 439 -55 67 -22 141 -40 163 -40 65 0 191 37 293 86 89 42 176 70 227 73 13 1 51 -10 85 -23z"></path><path id="p16lcNXTiP" d="M7695 10841 c-16 -4 -70 -26 -120 -48 -111 -50 -244 -93 -293 -94 -21 -1 -88 15 -151 35 -161 51 -228 60 -426 53 -123 -5 -198 -2 -270 8 -55 8 -161 15 -235 15 -74 0 -253 5 -397 11 l-262 11 -38 -23 c-21 -13 -84 -65 -141 -117 -114 -104 -162 -130 -297 -163 -105 -26 -233 -29 -420 -11 -254 25 -515 12 -788 -38 -172 -33 -175 -33 -262 -95 -33 -23 -94 -59 -136 -78 -171 -81 -242 -151 -358 -353 -65 -112 -87 -143 -161 -226 -81 -91 -160 -141 -326 -211 -72 -31 -196 -112 -241 -159 -33 -34 -90 -180 -167 -428 -43 -137 -73 -188 -260 -428 -77 -101 -168 -337 -236 -620 -17 -70 -46 -174 -65 -232 -32 -100 -61 -266 -96 -566 -13 -110 -10 -237 16 -629 8 -132 18 -283 21 -335 5 -79 1 -133 -29 -325 -48 -309 -47 -303 -58 -488 -5 -89 -12 -198 -15 -242 -6 -76 -5 -83 20 -119 14 -21 30 -55 36 -75 5 -20 24 -85 42 -146 29 -101 32 -125 38 -300 6 -186 7 -192 38 -266 32 -74 64 -115 109 -138 12 -6 76 -31 143 -56 158 -58 218 -93 304 -179 94 -94 116 -128 225 -341 51 -99 102 -188 114 -199 45 -38 119 -67 235 -91 229 -48 267 -69 427 -228 288 -290 348 -342 415 -369 36 -14 122 -48 191 -76 70 -29 178 -65 240 -82 175 -47 350 -105 389 -128 62 -37 123 -53 226 -61 91 -7 111 -12 189 -49 72 -35 109 -45 213 -61 70 -11 147 -27 172 -36 25 -9 106 -31 180 -50 74 -18 189 -54 255 -80 247 -95 253 -97 329 -93 78 5 195 49 283 107 90 60 280 106 573 141 52 6 138 20 190 30 52 11 181 31 285 45 105 14 244 40 310 57 96 24 148 32 260 36 131 4 144 7 220 39 44 19 123 57 175 85 120 64 346 164 425 188 33 10 96 26 140 35 243 53 266 64 350 173 97 126 288 312 405 396 54 39 164 94 249 126 43 15 92 37 109 47 32 20 239 237 270 283 9 14 46 62 82 108 36 45 77 100 92 120 14 21 77 93 140 161 161 176 234 283 285 415 13 34 31 75 40 91 32 61 195 412 219 473 50 129 53 193 49 887 -3 654 -16 1077 -35 1162 -6 27 -27 81 -47 122 -20 42 -41 107 -48 150 -27 155 -72 288 -150 444 -42 83 -86 175 -97 202 -34 84 -58 235 -58 363 0 221 -13 257 -185 514 -147 220 -233 320 -325 382 -90 60 -253 153 -326 186 -63 29 -94 56 -329 279 -128 122 -216 215 -440 460 -97 106 -156 163 -193 183 -28 17 -61 41 -71 55 -27 34 -70 63 -186 127 -56 30 -125 61 -155 67 -39 8 -74 27 -128 68 -159 120 -234 151 -363 151 -64 0 -86 5 -125 25 -37 20 -60 25 -113 24 -36 -1 -79 -4 -96 -8z m164 -68 l25 -16 -49 -17 c-28 -10 -68 -26 -90 -37 -22 -12 -94 -42 -160 -68 -66 -26 -187 -82 -270 -125 -205 -107 -185 -102 -619 -151 -104 -11 -217 -29 -252 -40 -74 -23 -171 -36 -331 -45 -122 -6 -117 -7 -518 57 -292 46 -429 61 -615 66 -211 6 -327 -4 -445 -38 -159 -47 -462 -152 -610 -212 -33 -13 -94 -32 -135 -42 -225 -53 -265 -71 -346 -157 -60 -65 -69 -82 -174 -339 -49 -120 -97 -184 -230 -304 -145 -130 -198 -187 -255 -275 -76 -116 -233 -434 -260 -527 -66 -224 -134 -381 -202 -468 -25 -33 -132 -119 -231 -187 -133 -91 -353 -303 -405 -389 l-39 -64 7 54 c4 30 20 93 36 140 17 47 45 150 64 227 75 302 162 534 241 636 187 240 217 291 260 428 77 248 134 394 167 428 45 47 169 128 241 159 166 70 245 120 326 211 74 83 96 114 161 226 116 202 187 272 358 353 42 19 103 55 136 78 87 62 89 62 262 95 243 46 433 57 655 39 267 -21 442 -18 553 10 135 33 183 59 297 163 157 143 153 142 301 130 67 -5 221 -11 342 -11 135 -1 265 -8 335 -18 87 -11 155 -14 280 -8 195 8 249 0 427 -56 115 -36 135 -40 199 -35 84 6 204 42 329 99 136 61 178 67 234 30z m238 -77 c78 -27 114 -48 223 -135 113 -90 277 -198 329 -217 25 -9 91 -38 146 -64 100 -48 102 -50 240 -202 309 -337 389 -418 749 -748 162 -149 251 -224 327 -274 20 -13 61 -53 92 -88 86 -96 98 -137 107 -393 11 -280 47 -519 105 -705 8 -25 30 -94 49 -155 62 -196 95 -263 182 -369 69 -83 112 -153 176 -285 148 -306 162 -360 134 -519 -17 -101 -34 -147 -70 -202 -13 -19 -29 -60 -36 -90 -7 -30 -38 -134 -70 -230 -80 -241 -84 -273 -71 -641 11 -340 7 -380 -50 -524 -28 -73 -94 -244 -155 -403 -28 -74 -64 -142 -105 -199 -35 -49 -215 -219 -288 -272 -207 -150 -268 -211 -352 -350 -102 -167 -122 -193 -202 -265 -81 -73 -149 -123 -252 -185 -38 -23 -110 -71 -160 -106 -88 -63 -175 -116 -305 -188 -62 -34 -118 -84 -191 -171 -65 -76 -212 -166 -329 -199 -48 -14 -317 -80 -420 -103 -19 -5 -192 -8 -385 -9 -271 0 -380 -4 -485 -18 -74 -9 -142 -19 -150 -22 -65 -20 -276 -57 -373 -66 -167 -14 -289 0 -518 59 -150 39 -255 47 -415 33 -172 -16 -257 -28 -384 -57 -143 -32 -425 -52 -512 -36 -95 18 -175 62 -274 153 -49 44 -105 92 -124 105 -19 13 -56 40 -82 59 -233 172 -392 261 -555 310 -116 35 -214 87 -282 151 -83 76 -277 200 -393 250 -168 73 -210 96 -261 144 -61 56 -89 110 -126 247 -17 59 -42 146 -56 193 -31 102 -55 234 -55 304 -1 28 -7 68 -14 88 -21 59 -81 140 -138 186 -86 70 -160 125 -208 157 -25 16 -61 43 -82 60 -20 16 -48 38 -62 48 -56 39 -59 53 -57 245 1 129 8 213 24 307 14 86 22 173 22 255 l0 125 -48 115 c-63 148 -115 298 -133 380 -33 150 -70 382 -79 490 -4 41 -17 144 -31 228 -13 84 -24 172 -24 195 0 74 28 180 71 267 36 73 57 101 158 200 110 110 199 187 273 238 99 68 206 154 231 187 68 87 136 244 202 468 27 93 184 411 260 527 57 88 110 145 255 275 133 120 181 184 230 304 105 257 114 274 174 339 81 86 121 104 346 157 41 10 102 29 135 42 148 60 451 165 610 212 211 61 466 53 990 -33 346 -57 370 -59 544 -52 196 7 290 19 375 45 35 11 148 29 252 40 434 49 414 44 619 151 83 43 204 99 270 125 66 26 138 56 160 68 53 27 173 66 206 67 14 0 57 -11 96 -24z m523 -229 c52 -27 109 -61 125 -75 29 -24 29 -25 5 -18 -45 13 -164 76 -220 117 -71 53 -36 43 90 -24z m1425 -1215 c203 -119 262 -180 450 -460 172 -257 185 -293 185 -514 0 -128 24 -279 58 -363 11 -27 55 -119 97 -202 78 -156 123 -289 150 -444 7 -43 28 -108 48 -150 20 -41 41 -95 47 -122 18 -80 31 -505 35 -1117 4 -634 0 -705 -49 -832 -24 -61 -187 -412 -219 -473 -9 -16 -27 -57 -40 -91 -51 -132 -124 -239 -285 -415 -63 -68 -126 -140 -140 -161 -15 -20 -56 -75 -92 -120 -36 -46 -73 -94 -82 -108 -31 -46 -238 -263 -270 -283 -17 -10 -66 -32 -109 -47 -85 -32 -195 -87 -249 -126 -112 -80 -320 -282 -387 -376 -18 -24 -52 -64 -75 -87 -46 -45 -100 -66 -249 -96 -42 -8 -109 -24 -148 -34 l-72 -19 42 47 c93 105 137 144 199 178 130 72 217 125 305 188 50 35 122 83 160 106 103 62 171 112 252 185 80 72 100 98 202 265 84 139 145 200 352 350 73 53 253 223 288 272 41 57 77 125 105 199 13 35 47 122 74 193 28 72 66 171 85 221 56 146 60 190 48 540 -12 364 -10 380 72 624 30 91 61 190 67 220 7 30 25 75 41 100 55 83 85 240 77 398 -6 110 -22 157 -146 413 -64 132 -107 202 -176 285 -87 106 -120 173 -182 369 -19 61 -41 130 -49 155 -58 186 -94 425 -105 705 -9 256 -21 297 -107 393 -31 35 -72 75 -92 88 -60 40 -154 115 -227 183 l-69 64 60 -33 c33 -18 87 -49 120 -68z m-8405 -2592 c16 -161 49 -372 84 -530 18 -81 70 -230 132 -380 43 -102 48 -123 48 -190 0 -41 -9 -133 -21 -205 -15 -90 -23 -196 -27 -344 -6 -238 -2 -260 53 -302 18 -13 49 -38 69 -54 20 -17 57 -44 82 -60 48 -32 122 -87 208 -157 57 -46 117 -127 138 -186 7 -20 13 -60 14 -88 0 -70 24 -202 55 -304 14 -47 39 -134 56 -193 62 -226 103 -268 387 -391 116 -50 310 -174 393 -250 68 -64 166 -116 282 -151 163 -49 322 -138 555 -310 26 -19 63 -46 82 -59 53 -37 158 -138 135 -131 -11 4 -74 22 -140 41 -254 74 -458 148 -590 214 -22 11 -138 117 -262 240 -122 120 -241 231 -264 246 -56 35 -128 59 -271 89 -116 24 -190 53 -235 91 -12 11 -63 100 -114 199 -109 213 -131 247 -225 341 -86 86 -146 121 -304 179 -67 25 -131 50 -143 56 -45 23 -77 64 -109 138 -31 74 -32 80 -38 266 -6 175 -9 199 -38 300 -18 61 -37 126 -42 146 -6 20 -21 52 -34 72 -23 33 -24 40 -15 104 4 37 8 103 9 146 0 106 14 230 57 502 40 258 40 282 8 765 -8 129 -17 287 -20 350 l-4 115 19 -105 c11 -58 24 -152 30 -210z m6585 -4247 c-27 -15 -88 -43 -135 -63 -81 -36 -91 -38 -225 -42 -113 -4 -164 -11 -260 -36 -66 -17 -205 -43 -310 -57 -104 -14 -233 -34 -285 -45 -52 -10 -138 -24 -190 -30 -293 -35 -483 -81 -573 -141 -45 -30 -191 -96 -232 -106 -21 -5 -72 12 -280 92 -66 26 -181 62 -255 80 -74 19 -155 41 -180 50 -25 9 -103 25 -173 36 -100 15 -143 27 -195 53 l-66 34 59 5 c33 4 94 9 135 12 41 4 125 17 185 30 163 35 158 34 320 50 170 16 236 11 385 -30 208 -56 398 -74 600 -56 102 9 314 46 380 66 8 3 76 12 150 22 105 13 214 17 490 18 l355 0 130 32 c72 18 144 37 160 42 56 17 60 10 10 -16z"></path><path id="p4RSLNivl" d="M7910 10500 c-14 -4 -77 -30 -140 -58 -63 -27 -133 -55 -155 -62 -22 -7 -105 -47 -185 -90 -225 -122 -300 -143 -631 -179 -168 -19 -302 -39 -342 -51 -72 -22 -299 -50 -413 -50 -65 0 -188 16 -489 65 -361 59 -687 80 -857 56 -128 -19 -418 -109 -671 -211 -69 -27 -184 -64 -256 -81 -71 -17 -136 -36 -144 -42 -14 -11 -96 -192 -112 -247 -12 -40 -82 -171 -120 -221 -18 -26 -100 -108 -182 -184 -81 -75 -164 -160 -184 -188 -20 -29 -75 -125 -123 -213 -69 -127 -102 -205 -155 -360 -38 -110 -78 -222 -89 -251 -70 -182 -213 -336 -476 -517 -116 -79 -242 -201 -280 -270 -60 -107 -72 -265 -36 -460 11 -59 24 -158 30 -219 30 -322 93 -613 166 -772 90 -199 118 -327 94 -432 -25 -109 -40 -269 -40 -433 l0 -176 32 -25 c18 -13 42 -31 54 -39 162 -114 321 -262 380 -352 61 -94 84 -163 95 -291 9 -113 18 -154 74 -347 18 -63 38 -134 44 -158 13 -47 35 -61 186 -121 87 -35 135 -61 235 -127 117 -78 154 -106 205 -153 58 -54 116 -84 270 -136 167 -57 257 -107 485 -266 25 -17 72 -50 105 -72 33 -23 103 -80 155 -127 155 -140 141 -135 365 -134 209 1 314 11 480 48 61 14 183 32 272 40 176 17 245 13 383 -23 172 -45 200 -50 310 -62 182 -18 387 -1 610 52 181 42 324 53 705 54 l360 0 186 48 c102 26 192 47 200 47 8 0 46 15 84 34 55 26 94 57 184 146 114 112 169 154 271 205 52 26 198 121 285 185 22 17 78 53 125 81 177 105 210 138 302 291 62 106 90 141 203 254 71 72 148 143 170 157 51 35 112 82 198 155 102 85 140 147 221 357 26 66 67 172 91 235 66 170 68 187 56 544 -13 379 -13 378 75 641 29 88 61 191 69 230 15 64 31 102 78 190 24 45 40 167 35 275 -4 92 -6 99 -60 210 -31 63 -68 141 -81 172 -24 53 -53 99 -117 184 -138 183 -172 253 -255 530 -106 353 -132 506 -144 844 l-8 214 -49 44 c-27 24 -65 54 -84 67 -38 24 -75 58 -365 325 -244 226 -433 414 -621 620 -156 171 -183 192 -299 236 -38 15 -95 40 -125 57 -70 38 -217 135 -225 147 -9 15 -142 112 -196 143 -39 23 -57 27 -120 26 -41 0 -85 -4 -99 -9z m169 -67 c55 -32 187 -129 196 -143 3 -6 32 -27 63 -47 l57 -36 -140 -28 c-242 -48 -248 -48 -436 4 -90 25 -190 51 -222 58 -32 7 -60 16 -63 20 -6 10 73 50 131 69 22 7 92 35 155 62 181 79 191 81 259 41z m-502 -249 c37 -8 131 -34 208 -56 135 -38 144 -39 255 -35 67 3 167 16 239 31 l125 25 51 -29 c29 -17 82 -41 119 -55 129 -49 159 -69 262 -182 54 -59 132 -144 174 -188 42 -44 100 -115 130 -158 42 -61 66 -85 115 -115 34 -20 105 -78 158 -128 112 -105 124 -128 156 -323 57 -336 88 -426 224 -658 109 -185 146 -314 163 -563 9 -137 8 -154 -27 -290 -17 -63 -39 -182 -50 -265 -11 -82 -26 -188 -34 -235 -8 -47 -15 -119 -15 -160 0 -124 60 -300 102 -300 68 0 199 -87 254 -169 13 -20 36 -54 51 -76 14 -22 63 -79 109 -128 105 -110 114 -134 88 -243 -16 -68 -19 -121 -19 -389 -1 -334 0 -325 -66 -597 -27 -110 -68 -210 -124 -299 -24 -37 -320 -316 -443 -416 -66 -54 -172 -165 -245 -259 -21 -27 -105 -120 -185 -207 -81 -87 -151 -166 -156 -175 -40 -73 -103 -156 -138 -181 -118 -84 -241 -163 -317 -202 -46 -24 -105 -63 -131 -86 -27 -24 -54 -43 -61 -43 -22 0 -123 -61 -178 -109 -113 -98 -185 -137 -306 -169 -183 -48 -258 -39 -487 55 -47 19 -75 23 -160 23 -187 0 -510 -74 -624 -142 -140 -84 -155 -87 -364 -64 -177 20 -265 43 -395 106 -102 49 -149 64 -315 99 -52 11 -151 36 -220 56 -119 35 -136 37 -350 47 -232 10 -470 5 -575 -12 -33 -6 -110 -13 -171 -16 -105 -7 -112 -6 -146 17 -19 13 -81 55 -137 92 -55 37 -138 86 -183 108 -73 34 -89 47 -133 105 -137 181 -254 248 -470 269 -52 5 -86 16 -130 40 -33 18 -89 45 -125 60 -36 15 -75 37 -88 48 -53 50 -120 200 -148 333 -12 61 -14 110 -8 253 8 196 7 200 -70 310 -18 25 -52 78 -75 118 -56 94 -112 157 -169 190 -78 44 -101 71 -123 147 -25 84 -26 162 -4 277 47 242 55 376 31 532 -8 50 -17 139 -21 197 -4 58 -15 137 -25 175 -49 189 -73 388 -60 505 29 284 73 390 312 765 95 148 186 412 208 605 24 208 84 334 258 538 53 61 88 88 227 172 193 116 261 202 336 420 43 127 91 222 140 275 43 46 198 155 285 198 121 61 388 155 574 202 79 20 128 40 195 79 50 29 124 67 165 84 l75 30 145 -19 c224 -29 214 -24 134 -72 -73 -43 -213 -99 -279 -111 -36 -7 -85 -31 -255 -124 -30 -17 -137 -53 -239 -81 -289 -81 -463 -150 -580 -232 -111 -77 -119 -89 -176 -266 -49 -151 -97 -230 -209 -350 -95 -100 -147 -141 -276 -218 -102 -60 -134 -89 -189 -170 -92 -136 -111 -189 -126 -345 -7 -77 -44 -215 -96 -360 -53 -148 -90 -227 -152 -322 -88 -135 -199 -336 -219 -395 -50 -154 -68 -371 -43 -548 19 -139 43 -269 57 -305 6 -14 16 -97 24 -184 7 -88 19 -192 26 -233 13 -79 3 -203 -28 -340 -9 -38 -18 -130 -21 -206 l-6 -137 115 -118 c63 -65 129 -142 146 -172 18 -30 51 -82 73 -115 21 -33 58 -98 82 -145 l42 -85 -3 -195 c-2 -150 1 -212 13 -270 20 -93 56 -173 87 -193 13 -9 81 -23 153 -32 139 -18 289 -61 341 -98 17 -12 44 -31 60 -42 108 -73 234 -209 339 -367 37 -55 52 -69 83 -77 54 -15 306 -13 452 3 212 25 317 28 545 17 212 -9 225 -11 360 -50 77 -22 194 -52 261 -66 141 -29 249 -64 311 -101 101 -59 247 -89 485 -101 135 -6 138 -6 176 19 74 50 140 77 278 116 167 48 176 50 284 68 167 27 195 23 430 -69 47 -19 74 -22 190 -21 203 0 268 25 432 165 37 31 96 71 132 88 58 27 108 43 312 97 28 8 62 22 75 33 13 10 64 83 112 162 73 119 112 169 224 289 74 80 161 177 191 215 93 116 247 278 323 341 151 124 355 318 381 363 43 71 64 137 93 282 15 74 36 168 47 209 25 96 47 381 48 618 l0 182 -79 83 c-43 45 -89 98 -102 117 -65 96 -82 110 -127 110 -23 0 -57 6 -75 14 -81 35 -182 196 -232 370 -27 94 -30 146 -15 213 5 23 21 126 35 230 13 103 38 240 54 303 40 159 44 201 32 337 -26 279 -30 298 -83 407 -28 56 -72 137 -99 182 -59 99 -124 255 -145 349 -8 39 -24 108 -34 155 -11 47 -26 129 -35 183 -9 53 -21 109 -27 123 -8 16 -47 46 -107 82 -53 31 -114 73 -136 93 -36 33 -125 157 -197 274 -14 22 -68 86 -121 143 -53 56 -108 117 -122 136 -14 19 -40 39 -57 45 -55 20 -223 13 -353 -14 -226 -46 -231 -46 -470 21 -258 73 -343 86 -560 91 -183 5 -215 3 -365 -22 -247 -40 -352 -54 -385 -53 -27 1 -27 1 -5 5 14 2 54 13 89 24 37 11 182 32 340 50 243 27 289 34 382 66 59 20 133 50 165 68 33 18 64 33 71 34 6 0 42 -6 80 -15z m-2568 -98 c-2 -2 -29 -14 -59 -27 -30 -12 -95 -46 -145 -75 -67 -39 -117 -59 -195 -79 -186 -47 -453 -141 -574 -202 -87 -43 -242 -152 -285 -198 -49 -53 -97 -148 -140 -275 -75 -218 -143 -304 -336 -420 -139 -84 -174 -111 -227 -172 -174 -204 -234 -330 -258 -538 -22 -193 -113 -457 -208 -605 -100 -158 -191 -312 -216 -369 -88 -198 -123 -468 -92 -697 19 -138 40 -248 61 -324 7 -27 16 -95 20 -150 3 -55 13 -149 22 -209 18 -122 12 -199 -29 -406 -30 -146 -29 -301 0 -395 24 -77 46 -104 124 -148 57 -33 113 -96 169 -190 23 -40 57 -93 75 -118 71 -101 69 -94 69 -324 0 -115 4 -226 9 -245 5 -19 6 -33 3 -29 -16 14 -58 207 -66 304 -11 130 -33 199 -95 293 -59 90 -218 238 -380 352 -12 8 -36 26 -54 39 l-32 25 0 126 c0 118 17 286 40 383 5 23 10 89 10 146 0 94 -4 115 -36 208 -19 57 -50 137 -68 178 -70 152 -140 472 -161 730 -3 44 -18 152 -32 239 -24 144 -25 167 -15 239 16 113 58 183 169 285 49 44 120 102 159 128 263 181 406 335 476 517 11 29 51 141 89 251 53 155 86 233 155 360 48 88 103 184 123 213 20 28 103 113 184 188 82 76 164 158 182 184 38 50 108 181 120 221 16 55 98 236 112 247 8 6 73 25 144 42 72 17 188 54 257 82 229 91 510 182 632 204 67 12 310 21 299 11z m741 -100 c52 -8 115 -18 140 -22 24 -3 86 -22 137 -40 51 -18 121 -36 155 -40 109 -11 353 14 708 71 281 46 473 30 825 -69 66 -19 144 -39 174 -46 75 -18 249 -7 396 24 190 41 262 34 310 -30 14 -19 69 -80 122 -136 53 -57 107 -121 121 -143 72 -117 161 -241 197 -274 22 -20 83 -62 136 -93 60 -36 99 -66 107 -82 6 -14 18 -70 27 -123 9 -54 24 -136 35 -183 10 -47 26 -116 34 -155 20 -93 85 -250 145 -349 140 -232 164 -309 176 -568 7 -128 6 -138 -24 -253 -17 -66 -43 -205 -56 -308 -14 -104 -30 -207 -35 -230 -5 -23 -10 -83 -10 -133 0 -114 31 -230 96 -359 72 -143 144 -205 236 -205 45 0 62 -14 127 -110 13 -19 59 -72 102 -117 l79 -83 0 -132 c-1 -193 -25 -480 -48 -568 -11 -41 -32 -135 -47 -209 -29 -145 -50 -211 -93 -282 -26 -45 -230 -239 -381 -363 -76 -63 -230 -225 -323 -341 -30 -38 -117 -135 -191 -215 -112 -120 -151 -170 -224 -289 -48 -79 -99 -152 -112 -162 -13 -11 -47 -25 -75 -33 -204 -54 -254 -70 -312 -97 -36 -17 -95 -57 -132 -88 -151 -128 -232 -163 -382 -165 -64 0 -99 5 -140 21 -215 83 -215 83 -333 83 -157 0 -251 -16 -481 -82 -138 -39 -204 -67 -278 -115 -35 -24 -43 -25 -120 -19 -225 18 -342 44 -435 97 -71 40 -173 74 -317 104 -67 14 -184 44 -261 66 -136 39 -147 41 -365 51 -246 11 -450 6 -635 -17 -141 -17 -305 -19 -357 -4 -31 8 -46 22 -83 77 -105 158 -231 294 -339 367 -16 11 -43 30 -60 42 -52 37 -202 80 -341 98 -71 9 -140 23 -152 31 -28 18 -58 74 -80 151 -13 46 -17 104 -17 283 l-1 225 -42 85 c-24 47 -61 112 -82 145 -22 33 -55 85 -73 115 -17 30 -83 107 -145 171 l-113 116 0 54 c0 30 7 92 16 139 45 247 56 412 34 505 -5 22 -14 108 -20 190 -7 83 -18 173 -25 200 -21 77 -42 189 -59 311 -11 84 -13 133 -5 210 10 114 42 251 72 309 35 71 139 248 194 333 62 95 99 174 152 322 52 145 89 283 96 360 15 156 34 209 126 345 55 81 87 110 189 170 129 77 181 118 276 218 112 120 160 199 209 350 57 177 65 189 176 266 117 82 291 151 580 232 102 28 209 64 239 81 161 88 218 117 250 123 76 14 212 70 287 116 116 73 174 100 203 94 14 -2 68 -11 120 -19z m648 -43 c-10 -2 -28 -2 -40 0 -13 2 -5 4 17 4 22 1 32 -1 23 -4z m3353 -902 c68 -62 140 -124 159 -136 19 -13 57 -43 84 -67 l49 -44 8 -214 c12 -338 38 -491 144 -844 83 -277 117 -347 255 -530 64 -85 93 -131 117 -184 13 -31 49 -107 79 -169 33 -67 57 -131 61 -160 7 -60 -12 -187 -34 -228 -46 -86 -63 -126 -73 -171 -13 -66 -83 -284 -91 -284 -3 0 -11 18 -18 40 -8 27 -38 68 -95 127 -46 49 -95 106 -109 128 -15 22 -38 56 -51 76 -55 82 -186 169 -255 169 -24 0 -65 84 -87 175 -16 69 -16 75 9 245 15 96 29 200 32 230 4 30 21 116 40 190 44 180 48 227 35 372 -27 313 -54 409 -167 601 -136 232 -167 322 -223 657 -11 63 -24 128 -30 143 l-9 28 23 -18 c13 -10 79 -69 147 -132z m699 -4011 c-7 -39 -14 -69 -17 -66 -3 2 0 37 7 76 7 39 14 69 17 66 3 -2 0 -37 -7 -76z m-209 -559 c-17 -32 -44 -78 -60 -102 -36 -53 -183 -180 -296 -256 -22 -14 -99 -85 -170 -157 -114 -114 -141 -148 -209 -261 -52 -87 -92 -141 -119 -163 -84 -66 -103 -79 -150 -107 l-48 -27 34 56 c19 32 100 128 180 214 80 86 163 179 184 206 73 94 179 205 245 259 72 59 413 371 423 387 3 6 8 10 11 10 2 0 -9 -26 -25 -59z m-7337 -839 c-1 -2 -11 1 -22 7 -20 11 -35 45 -47 111 -5 27 2 19 32 -40 22 -41 38 -76 37 -78z m496 -204 c65 -12 129 -38 171 -70 73 -56 124 -102 143 -128 12 -16 31 -42 43 -58 l22 -28 -79 27 c-117 40 -169 68 -225 120 -49 45 -106 89 -172 131 -18 11 -33 21 -33 23 0 4 55 -3 130 -17z m5094 -522 c-20 -24 -49 -53 -63 -64 -35 -26 -144 -79 -113 -55 13 10 49 40 80 67 48 41 119 93 130 95 2 1 -14 -19 -34 -43z m-3364 -26 c181 -8 204 -11 320 -45 69 -20 168 -45 220 -56 166 -35 213 -50 315 -99 126 -60 221 -87 371 -103 95 -11 112 -15 86 -21 -17 -4 -83 -2 -145 4 -121 13 -123 13 -302 58 -66 17 -160 34 -210 38 -116 8 -403 -19 -550 -51 -156 -35 -259 -47 -425 -49 -172 -1 -168 -3 -326 139 -55 49 -123 105 -149 123 l-49 32 84 0 c47 0 126 5 175 11 246 30 306 32 585 19z m2378 -116 c84 -36 181 -68 252 -84 l75 -17 -330 1 c-325 1 -552 -14 -656 -44 -56 -16 -57 -11 -2 21 61 35 257 94 398 119 129 23 215 24 263 4z"></path><path id="p3lgiOnwG" d="M6165 7290 c-97 -11 -261 -39 -292 -51 -30 -11 -29 -29 10 -264 l33 -190 30 -3 c17 -2 75 6 130 18 114 24 337 36 467 25 l87 -7 0 -38 0 -38 -77 -6 c-43 -4 -120 -11 -172 -17 -390 -44 -523 -193 -507 -574 8 -211 42 -311 135 -398 84 -78 186 -113 375 -126 227 -16 696 24 735 64 12 12 10 43 -18 222 -18 114 -36 212 -40 216 -5 5 -58 1 -120 -7 -159 -23 -294 -30 -394 -21 l-87 7 0 36 0 37 158 17 c356 39 507 128 573 338 26 83 29 289 5 393 -32 138 -113 255 -210 302 -118 58 -188 68 -476 71 -146 1 -301 -2 -345 -6z m649 -74 c54 -14 117 -37 140 -50 185 -108 263 -433 158 -656 -73 -157 -229 -231 -560 -267 l-153 -17 3 -85 3 -85 35 -9 c40 -11 461 -2 531 11 l46 8 25 -165 c14 -91 24 -168 22 -169 -1 -2 -22 -8 -46 -13 -193 -44 -546 -61 -698 -35 -272 48 -390 197 -393 496 -1 112 14 183 56 263 71 136 208 200 482 226 61 6 134 13 163 17 l52 5 0 89 0 89 -42 5 c-170 20 -451 12 -593 -18 -38 -8 -72 -13 -74 -10 -5 5 -61 337 -58 341 6 6 241 44 327 52 52 5 181 8 285 6 165 -3 203 -7 289 -29z"></path><path id="pyvxEkNzk" d="M3307 7263 c-4 -3 -7 -266 -7 -584 l0 -579 -177 -2 -178 -3 0 -220 0 -220 630 0 630 0 0 220 0 220 -177 3 -178 2 -2 583 -3 582 -266 3 c-146 1 -268 -1 -272 -5z m493 -633 l0 -580 180 0 180 0 0 -170 0 -170 -585 0 -585 0 0 170 0 170 180 0 180 0 0 580 0 580 225 0 225 0 0 -580z"></path><path id="pNC0qDfID" d="M4305 7258 c-3 -7 -4 -371 -3 -808 l3 -795 385 -3 c216 -2 433 2 495 7 276 27 427 113 515 296 118 245 118 760 0 1013 -35 75 -121 168 -188 205 -85 46 -213 77 -367 87 -217 15 -834 13 -840 -2z m993 -76 c122 -32 189 -67 258 -136 71 -72 114 -153 146 -282 20 -79 23 -114 22 -309 0 -206 -2 -226 -26 -318 -63 -231 -167 -336 -393 -399 -76 -21 -103 -22 -517 -26 l-438 -3 0 751 0 751 433 -4 c403 -3 438 -5 515 -25z"></path><path id="pviBIl5IV" d="M4800 6460 l0 -412 188 4 c130 2 195 8 213 17 52 26 54 38 54 390 0 298 -2 329 -18 354 -10 16 -30 33 -45 39 -15 6 -108 13 -209 16 l-183 4 0 -412z m345 336 c18 -8 38 -23 44 -34 15 -29 15 -572 0 -606 -17 -37 -59 -48 -206 -53 l-133 -6 0 357 0 356 130 0 c90 0 141 -4 165 -14z"></path><path id="psMbCDV6S" d="M7355 7258 c-3 -7 -4 -371 -3 -808 l3 -795 1165 0 1165 0 0 220 0 220 -177 3 -178 2 -2 583 -3 582 -270 0 -270 0 -3 -582 -2 -583 -178 -2 -177 -3 -5 -170 -5 -170 -24 160 c-13 88 -28 166 -34 173 -7 9 -66 12 -233 12 l-224 0 0 80 0 80 213 2 212 3 0 210 0 210 -212 3 -213 2 -2 288 -3 287 -268 3 c-209 2 -269 0 -272 -10z m495 -338 l0 -290 210 0 210 0 0 -155 0 -155 -210 0 -210 0 0 -135 0 -135 230 0 c127 0 230 -2 230 -5 0 -2 11 -74 25 -159 14 -85 25 -160 25 -165 0 -8 -150 -11 -480 -11 l-480 0 0 750 0 750 225 0 225 0 0 -290z m1430 -290 l0 -580 180 0 180 0 0 -170 0 -170 -585 0 -585 0 0 170 0 170 180 0 180 0 0 580 0 580 225 0 225 0 0 -580z"></path></g></g><g id="l3yK9FBRn4ciZ2M74vGjZl0" fill="rgb(255,105,97)" style="transform: none;"><g><path id="pZ1KeYpgb" d="M8005 10770 c150 -10 197 -30 360 -153 42 -32 79 -56 82 -53 5 4 -112 96 -185 145 -68 45 -167 71 -266 69 l-91 -1 100 -7z"></path><path id="pAYRyeCHk" d="M7875 10726 c-38 -12 -88 -32 -110 -43 -22 -12 -94 -42 -160 -68 -66 -26 -187 -82 -270 -125 -205 -107 -185 -102 -619 -151 -104 -11 -217 -29 -252 -40 -79 -24 -183 -38 -354 -45 -141 -7 -160 -5 -505 52 -530 87 -832 96 -1050 33 -159 -47 -462 -152 -610 -212 -33 -13 -94 -32 -135 -42 -225 -53 -265 -71 -346 -157 -60 -65 -69 -82 -174 -339 -49 -120 -97 -184 -230 -304 -145 -130 -198 -187 -255 -275 -76 -116 -233 -434 -260 -527 -66 -224 -134 -381 -202 -468 -25 -33 -132 -119 -231 -187 -74 -51 -163 -128 -273 -238 -101 -99 -122 -127 -158 -200 -76 -156 -86 -272 -47 -522 14 -84 27 -187 31 -228 9 -108 46 -340 79 -490 18 -82 70 -231 132 -380 47 -110 49 -119 49 -210 0 -52 -8 -138 -18 -190 -12 -62 -22 -175 -27 -325 -9 -255 -6 -273 49 -316 18 -13 49 -38 69 -54 20 -17 57 -44 82 -60 48 -32 122 -87 208 -157 57 -46 117 -127 138 -186 7 -20 13 -60 14 -88 0 -70 24 -202 55 -304 14 -47 39 -134 56 -193 62 -226 103 -268 387 -391 116 -50 310 -174 393 -250 68 -64 166 -116 282 -151 163 -49 322 -138 555 -310 26 -19 63 -46 82 -59 19 -13 74 -60 121 -103 97 -88 158 -125 244 -148 109 -28 410 -13 615 31 63 14 124 27 136 29 11 2 95 11 186 20 188 18 261 13 418 -30 279 -75 515 -81 805 -20 66 14 127 28 135 30 8 3 76 13 150 22 105 14 215 18 490 18 246 1 370 5 405 13 28 7 115 28 195 48 206 49 246 62 324 101 86 43 161 98 205 149 73 87 129 137 191 171 130 72 217 125 305 188 50 35 122 83 160 106 103 62 171 112 252 185 80 72 100 98 202 265 84 139 145 200 352 350 73 53 253 223 288 272 41 57 77 125 105 199 13 35 47 122 74 193 28 72 66 171 85 220 55 145 59 185 47 529 -13 363 -10 385 70 626 32 96 63 200 70 230 7 30 25 75 41 100 53 80 86 244 76 379 -6 87 -31 157 -145 392 -64 132 -107 202 -176 285 -87 106 -120 173 -182 369 -19 61 -41 130 -49 155 -58 186 -94 425 -105 705 -9 256 -21 297 -107 393 -31 35 -72 75 -92 88 -76 50 -165 125 -327 274 -360 330 -440 411 -749 748 -138 152 -140 154 -240 202 -55 26 -121 55 -146 64 -52 19 -216 127 -329 217 -109 87 -145 108 -223 135 -88 30 -161 30 -252 0z m224 -273 c54 -31 187 -128 196 -143 8 -12 155 -109 225 -147 30 -17 87 -42 125 -57 116 -44 143 -65 299 -236 188 -206 377 -394 621 -620 290 -267 327 -301 365 -325 19 -13 57 -43 84 -67 l49 -44 8 -214 c12 -338 38 -491 144 -844 83 -277 117 -347 255 -530 64 -85 93 -131 117 -184 13 -31 50 -108 80 -171 46 -94 57 -126 61 -180 5 -78 -12 -204 -35 -246 -47 -88 -63 -126 -78 -190 -8 -39 -40 -142 -69 -230 -90 -268 -91 -273 -77 -661 13 -343 11 -357 -54 -524 -24 -63 -65 -169 -91 -235 -81 -210 -119 -272 -221 -357 -86 -73 -147 -120 -198 -155 -22 -14 -99 -85 -170 -157 -113 -113 -141 -148 -203 -254 -92 -153 -125 -186 -302 -291 -47 -28 -103 -64 -125 -81 -87 -64 -233 -159 -285 -185 -102 -51 -157 -93 -271 -205 -90 -89 -129 -120 -184 -146 -38 -19 -76 -34 -84 -34 -8 0 -98 -21 -200 -47 l-186 -47 -360 -1 c-381 -1 -525 -12 -705 -54 -232 -55 -403 -68 -588 -47 -74 9 -137 18 -142 21 -22 13 -254 64 -320 70 -99 9 -384 -19 -525 -51 -159 -35 -269 -47 -450 -48 -189 -1 -183 -4 -335 134 -52 47 -122 104 -155 127 -33 22 -80 55 -105 72 -228 159 -318 209 -485 266 -154 52 -212 82 -270 136 -106 99 -305 226 -440 280 -151 60 -173 74 -186 121 -6 24 -26 95 -44 158 -56 193 -65 234 -74 347 -11 128 -34 197 -95 291 -59 90 -218 238 -380 352 -12 8 -36 26 -54 39 l-32 25 0 146 c0 136 16 302 40 403 5 23 10 80 10 126 0 71 -6 101 -36 188 -19 57 -50 137 -68 178 -73 159 -136 450 -166 772 -6 61 -19 160 -30 219 -33 180 -23 295 36 400 38 69 164 191 280 270 263 181 406 335 476 517 11 29 51 141 89 251 53 155 86 233 155 360 48 88 103 184 123 213 20 28 103 113 184 188 82 76 164 158 182 184 38 50 108 181 120 221 16 55 98 236 112 247 8 6 73 25 144 42 72 17 187 54 256 81 129 52 393 143 518 179 210 60 474 53 950 -24 321 -52 426 -65 519 -65 140 0 364 25 443 50 40 12 174 32 342 51 331 36 406 57 631 179 80 43 163 83 185 90 22 7 92 35 155 62 142 62 154 66 209 67 31 1 58 -7 90 -26z"></path><path id="p1A6utJm2O" d="M7408 10201 c-37 -20 -116 -54 -175 -74 -96 -32 -139 -39 -384 -66 -169 -19 -301 -39 -340 -51 -60 -19 -283 -46 -429 -53 -63 -3 -62 -3 15 -5 113 -3 344 24 422 48 40 12 174 32 342 51 244 27 288 34 381 66 102 34 167 63 233 103 57 35 4 20 -65 -19z"></path><path id="puVoy6wkc" d="M8420 10175 c0 -9 127 -73 195 -99 113 -42 143 -64 259 -191 188 -205 290 -311 266 -275 -13 19 -58 71 -100 115 -42 44 -120 129 -174 188 -103 113 -133 133 -262 182 -37 14 -90 39 -119 55 -51 29 -65 35 -65 25z"></path><path id="pMgfzQ6h4" d="M5155 10064 c55 -7 165 -23 243 -35 79 -11 146 -18 150 -15 3 3 1 6 -4 6 -5 0 -38 5 -74 11 -124 20 -355 49 -385 48 -16 -1 15 -7 70 -15z"></path><path id="pBY8a7ujU" d="M9365 9379 c70 -72 190 -177 179 -157 -11 20 -211 208 -221 208 -4 0 15 -23 42 -51z"></path><path id="p1DHPTXzRR" d="M6215 7270 c-81 -8 -336 -49 -343 -54 -3 -3 66 -408 71 -413 2 -2 48 6 103 17 136 28 293 38 459 29 77 -4 141 -8 143 -8 1 -1 2 -28 2 -60 l0 -60 -52 -5 c-29 -4 -102 -11 -163 -17 -274 -26 -411 -90 -482 -226 -45 -86 -58 -151 -57 -293 2 -262 71 -404 231 -478 112 -51 223 -65 468 -59 260 7 522 43 512 70 -2 7 -17 97 -33 201 l-28 188 -56 -6 c-30 -4 -91 -11 -135 -16 -91 -11 -357 -12 -395 -1 -22 6 -25 13 -28 62 l-3 55 153 17 c258 28 397 75 486 164 85 85 122 193 122 356 -1 215 -77 388 -206 463 -23 13 -86 36 -140 50 -89 24 -121 27 -319 29 -121 2 -260 0 -310 -5z"></path><path id="plqW50RxA" d="M3320 6660 l0 -580 -180 0 -180 0 0 -200 0 -200 615 0 615 0 0 200 0 200 -180 0 -180 0 0 580 0 580 -255 0 -255 0 0 -580z"></path><path id="pTka6EAs7" d="M4320 6460 l0 -781 468 3 c446 4 471 5 547 26 226 63 330 168 393 399 25 94 26 109 26 348 1 227 -1 258 -22 339 -33 129 -75 210 -146 282 -69 69 -136 104 -258 136 -78 20 -110 22 -545 25 l-463 4 0 -781z m842 362 c60 -25 62 -36 62 -362 1 -321 -1 -335 -53 -361 -17 -9 -80 -14 -183 -17 l-158 -4 0 382 0 382 153 -4 c83 -3 164 -10 179 -16z"></path><path id="pb4sOhlc4" d="M7370 6460 l0 -780 515 -2 c338 -2 515 0 515 7 0 6 -14 95 -30 199 -17 104 -30 191 -30 192 0 2 -103 4 -230 4 l-230 0 0 105 0 105 210 0 210 0 0 185 0 185 -210 0 -210 0 0 290 0 290 -255 0 -255 0 0 -780z"></path><path id="p8ZOnJZ9j" d="M8800 6660 l0 -580 -180 0 -180 0 0 -200 0 -200 615 0 615 0 0 200 0 200 -180 0 -180 0 0 580 0 580 -255 0 -255 0 0 -580z"></path><path id="pqMu45P9E" d="M10471 5923 c-6 -21 -15 -56 -21 -78 -17 -66 -21 -227 -12 -465 l9 -225 -1 315 c-1 275 1 324 17 384 10 39 23 78 28 88 6 12 6 18 0 18 -6 0 -15 -17 -20 -37z"></path><path id="pHj9GsBYT" d="M10342 4763 c-15 -48 -8 -55 8 -8 7 20 10 38 8 41 -3 2 -10 -13 -16 -33z"></path><path id="pc88EPfBo" d="M2975 3601 c6 -5 39 -21 75 -36 36 -15 92 -42 126 -61 76 -43 96 -44 29 -2 -71 45 -257 125 -230 99z"></path><path id="pFZdGC1BU" d="M9090 3350 c-117 -85 -249 -169 -329 -211 -79 -42 -206 -139 -181 -139 7 0 33 19 60 43 26 23 85 62 131 86 105 55 318 196 364 242 30 30 15 23 -45 -21z"></path><path id="ppo0vSjK9" d="M3821 3136 c3 -4 43 -24 88 -46 45 -22 128 -70 183 -107 55 -38 116 -78 135 -91 19 -13 37 -21 40 -18 3 2 -11 15 -30 28 -19 13 -79 53 -133 89 -55 37 -130 82 -169 101 -69 35 -126 57 -114 44z"></path><path id="pfEw2rGT4" d="M8070 2729 c-58 -15 -94 -28 -80 -29 26 0 198 44 208 54 10 10 -20 4 -128 -25z"></path><path id="p1GjBdYSkD" d="M6655 2590 c-27 -7 -28 -8 -5 -8 14 0 34 3 45 8 25 11 2 11 -40 0z"></path><path id="pyPUnJiaE" d="M8844 10342 c3 -5 30 -23 59 -40 36 -20 95 -77 192 -183 224 -245 312 -338 440 -460 196 -187 263 -247 287 -259 13 -7 -15 23 -62 66 -279 258 -375 356 -663 671 -109 120 -150 157 -199 183 -33 18 -58 28 -54 22z"></path><path id="pPfQiPQs8" d="M1591 7247 c-6 -35 -10 -88 -10 -118 2 -51 2 -49 9 21 4 41 11 94 15 118 4 23 5 42 2 42 -3 0 -10 -28 -16 -63z"></path><path id="pOw9ZrdAI" d="M8453 2498 c-51 -23 -91 -43 -89 -45 5 -5 103 34 156 62 69 37 36 28 -67 -17z"></path><path id="p0F4lB4ci" d="M4435 2314 c68 -53 178 -85 285 -83 l75 2 -95 8 c-101 8 -158 24 -226 64 -47 28 -70 33 -39 9z"></path></g></g><g id="l5304cJhVlySJ5mAzZbLVwr" fill="rgb(132,182,244)" style="transform: none;"><g><path id="pG2IxYnZk" d="M7680 11074 c-30 -7 -98 -33 -150 -59 -52 -25 -134 -55 -181 -66 l-85 -21 -127 41 c-169 55 -245 65 -452 57 -127 -4 -194 -2 -265 9 -52 8 -157 15 -234 15 -76 0 -248 5 -382 11 -325 14 -337 11 -522 -161 -119 -109 -125 -113 -216 -134 -112 -26 -192 -29 -383 -12 -100 9 -239 16 -310 16 -130 0 -374 -22 -441 -39 -20 -5 -73 -15 -117 -22 -93 -14 -225 -60 -266 -92 -16 -12 -42 -32 -57 -44 -16 -12 -65 -38 -108 -58 -192 -88 -344 -234 -476 -457 -124 -210 -156 -240 -348 -324 -47 -20 -119 -59 -160 -87 -100 -67 -237 -191 -259 -236 -23 -45 -125 -329 -157 -435 -27 -90 -55 -141 -133 -244 -110 -144 -132 -178 -185 -282 -64 -126 -132 -322 -187 -543 -22 -89 -54 -205 -71 -257 -31 -100 -58 -245 -84 -464 -24 -201 -28 -306 -15 -470 13 -169 29 -433 37 -606 5 -98 1 -143 -25 -305 -46 -278 -60 -419 -65 -626 -2 -107 -8 -196 -15 -213 -16 -39 1 -87 42 -123 24 -21 39 -51 61 -118 27 -82 31 -107 37 -285 8 -213 17 -257 79 -380 40 -80 165 -212 233 -247 27 -13 99 -42 160 -64 212 -76 240 -103 369 -364 46 -93 96 -188 110 -211 63 -99 236 -208 378 -239 169 -36 217 -49 251 -66 19 -9 132 -113 250 -231 118 -117 233 -225 254 -240 76 -52 465 -204 611 -239 45 -10 135 -37 200 -58 66 -22 166 -49 224 -61 141 -28 203 -46 269 -79 111 -55 192 -82 298 -96 59 -8 140 -25 178 -36 39 -12 129 -36 200 -54 72 -18 193 -58 270 -88 77 -31 175 -65 218 -78 74 -21 80 -22 135 -6 65 18 306 129 316 146 17 26 231 73 466 101 52 6 151 22 220 35 69 13 199 33 290 45 91 12 217 35 280 51 92 24 147 32 276 38 l160 8 105 48 c57 26 169 80 249 120 207 103 330 150 471 179 182 38 266 69 350 129 67 48 154 145 223 247 34 51 172 172 268 236 45 30 119 68 163 84 144 54 186 79 275 169 124 126 276 297 347 392 118 158 159 208 263 321 148 161 217 262 275 403 19 44 75 166 125 270 152 315 177 382 204 550 27 167 8 1687 -23 1851 -11 58 -52 172 -75 206 -8 13 -20 55 -26 93 -6 39 -29 133 -51 210 -32 112 -57 173 -126 305 -54 105 -90 188 -100 230 -8 36 -18 151 -23 255 -12 262 -28 307 -213 590 -101 153 -105 159 -213 284 -147 168 -204 217 -377 315 -150 86 -303 158 -389 184 -122 36 -277 137 -350 227 -46 57 -71 101 -141 255 -25 54 -56 98 -114 160 -43 47 -86 97 -95 111 -33 51 -130 149 -189 189 -74 51 -229 134 -289 155 -25 9 -81 23 -125 31 -44 9 -131 36 -193 60 -62 24 -116 44 -120 44 -5 0 -51 25 -103 56 -170 101 -249 120 -379 88z m194 -279 c39 -20 61 -25 125 -25 129 0 204 -31 363 -151 54 -41 89 -60 128 -68 30 -6 99 -37 155 -67 116 -64 159 -93 186 -127 10 -14 43 -38 71 -55 37 -20 96 -77 193 -183 224 -245 312 -338 440 -460 235 -223 266 -250 329 -279 73 -33 236 -126 326 -186 92 -62 178 -162 325 -382 172 -257 185 -293 185 -514 0 -128 24 -279 58 -363 11 -27 55 -119 97 -202 78 -156 123 -289 150 -444 7 -43 28 -108 48 -150 20 -41 41 -95 47 -122 18 -82 31 -510 35 -1137 4 -656 0 -724 -49 -852 -24 -61 -187 -412 -219 -473 -9 -16 -27 -57 -40 -91 -51 -132 -124 -239 -285 -415 -63 -68 -126 -140 -140 -161 -15 -20 -56 -75 -92 -120 -36 -46 -73 -94 -82 -108 -31 -46 -238 -263 -270 -283 -17 -10 -66 -32 -109 -47 -85 -32 -195 -87 -249 -126 -117 -84 -308 -270 -405 -396 -84 -109 -107 -120 -350 -173 -44 -9 -107 -25 -140 -35 -79 -24 -305 -124 -425 -188 -52 -28 -131 -66 -175 -85 -76 -32 -89 -35 -220 -39 -112 -4 -164 -12 -260 -36 -66 -17 -205 -43 -310 -57 -104 -14 -233 -34 -285 -45 -52 -10 -138 -24 -190 -30 -293 -35 -483 -81 -573 -141 -64 -42 -203 -101 -252 -106 -43 -5 -72 4 -300 92 -66 26 -181 62 -255 80 -74 19 -155 41 -180 50 -25 9 -102 25 -172 36 -104 16 -141 26 -213 61 -78 37 -98 42 -189 49 -103 8 -164 24 -226 61 -39 23 -214 81 -389 128 -62 17 -170 53 -240 82 -69 28 -155 62 -191 76 -67 27 -127 79 -415 369 -160 159 -198 180 -427 228 -116 24 -190 53 -235 91 -12 11 -63 100 -114 199 -109 213 -131 247 -225 341 -86 86 -146 121 -304 179 -67 25 -131 50 -143 56 -45 23 -77 64 -109 138 -31 74 -32 80 -38 266 -6 175 -9 199 -38 300 -18 61 -37 126 -42 146 -6 20 -22 53 -36 74 -25 38 -26 40 -15 131 6 51 11 124 11 164 0 98 15 225 57 495 39 256 39 246 8 720 -33 508 -34 455 21 850 17 122 36 214 59 285 19 58 48 162 65 232 68 283 159 519 236 620 187 240 217 291 260 428 77 248 134 394 167 428 45 47 169 128 241 159 166 70 245 120 326 211 74 83 96 114 161 226 116 202 187 272 358 353 42 19 103 55 136 78 87 62 90 62 262 95 285 53 560 62 843 29 124 -15 262 -6 381 25 130 33 165 53 283 160 147 134 160 140 259 132 45 -4 206 -9 357 -12 156 -3 327 -11 395 -20 90 -12 159 -14 280 -9 191 9 253 1 431 -55 111 -35 137 -40 184 -34 72 8 194 47 305 97 144 65 196 71 269 32z"></path></g></g><g id="l3Km7BCBeEQuRDb5FOePSIA" fill="rgb(253,253,150)" style="transform: none;"><g><path id="p9dYVzZ4Y" d="M7408 10201 c-37 -20 -116 -54 -175 -74 -96 -32 -139 -39 -384 -66 -169 -19 -301 -39 -340 -51 -61 -19 -292 -47 -429 -53 l-65 -2 65 -22 c95 -32 141 -36 291 -24 156 13 217 21 469 62 169 28 200 30 360 26 189 -5 289 -22 535 -91 66 -19 144 -39 174 -46 71 -17 203 -8 356 25 127 26 242 32 293 14 17 -6 43 -26 57 -45 14 -19 69 -80 122 -136 53 -57 107 -121 121 -143 72 -117 161 -241 197 -274 22 -20 83 -62 136 -93 60 -36 99 -66 107 -82 6 -14 18 -70 27 -123 9 -54 24 -136 35 -183 10 -47 26 -116 34 -155 21 -94 86 -250 145 -349 27 -45 72 -127 99 -183 43 -88 51 -114 61 -200 34 -301 34 -315 -13 -498 -15 -55 -38 -185 -51 -288 -14 -104 -30 -207 -35 -230 -28 -123 3 -287 86 -452 72 -143 144 -205 236 -205 45 0 62 -14 127 -110 13 -19 59 -72 102 -117 l79 -83 0 -152 c-1 -211 -24 -497 -48 -588 -11 -41 -32 -135 -47 -209 -29 -145 -50 -211 -93 -282 -26 -45 -230 -239 -381 -363 -76 -63 -230 -225 -323 -341 -30 -38 -117 -135 -191 -215 -112 -120 -151 -170 -224 -289 -48 -79 -99 -152 -112 -162 -13 -11 -47 -25 -75 -33 -204 -54 -254 -70 -312 -97 -36 -17 -95 -57 -132 -88 -156 -133 -231 -164 -402 -165 -85 -1 -116 3 -160 21 -204 79 -218 83 -313 83 -137 0 -238 -18 -461 -82 -138 -39 -204 -67 -278 -116 -37 -24 -42 -25 -149 -18 -220 14 -356 44 -452 100 -62 37 -170 72 -311 101 -67 14 -184 44 -261 66 -136 39 -147 41 -365 51 -241 11 -397 6 -598 -17 -147 -17 -340 -19 -394 -4 -31 8 -46 22 -83 77 -105 158 -231 294 -339 367 -16 11 -43 30 -60 42 -52 37 -202 80 -341 98 -72 9 -140 23 -153 32 -31 19 -67 100 -87 192 -11 54 -14 122 -13 269 l3 197 -42 85 c-24 47 -61 112 -82 145 -22 33 -55 85 -73 115 -17 30 -83 107 -145 171 l-113 116 0 74 c0 41 7 112 16 159 45 248 55 378 34 465 -5 22 -14 108 -20 190 -7 83 -18 173 -25 200 -22 79 -43 190 -60 318 -13 97 -14 140 -6 231 12 125 43 260 74 321 35 70 139 247 194 333 62 95 99 174 152 322 52 145 89 283 96 360 15 156 34 209 126 345 55 81 87 110 189 170 129 77 181 118 276 218 112 120 160 199 209 350 57 177 65 189 176 266 117 82 291 151 580 232 102 28 209 64 239 81 170 93 219 117 255 124 71 13 198 64 278 112 43 26 95 57 115 69 20 13 33 23 29 23 -5 0 -65 9 -135 19 -70 11 -174 25 -232 32 l-105 12 -80 -33 c-44 -18 -120 -57 -170 -86 -67 -39 -116 -59 -195 -79 -186 -47 -453 -141 -574 -202 -87 -43 -242 -152 -285 -198 -49 -53 -97 -148 -140 -275 -75 -218 -143 -304 -336 -420 -139 -84 -174 -111 -227 -172 -174 -204 -234 -330 -258 -538 -22 -193 -113 -457 -208 -605 -100 -158 -191 -312 -216 -369 -85 -191 -121 -449 -92 -656 21 -147 34 -218 56 -305 10 -38 21 -117 25 -175 4 -58 13 -147 21 -197 22 -142 15 -239 -32 -473 -24 -122 -23 -248 4 -335 24 -77 46 -104 124 -148 57 -33 113 -96 169 -190 23 -40 57 -93 75 -118 75 -108 76 -111 68 -307 -5 -144 -3 -191 10 -255 28 -135 94 -284 148 -334 13 -11 52 -33 88 -48 36 -15 92 -42 125 -60 44 -24 78 -35 130 -40 216 -21 333 -88 470 -269 44 -58 60 -71 133 -105 70 -34 183 -105 316 -198 27 -19 45 -22 126 -22 52 0 129 4 170 9 218 27 340 32 580 22 238 -10 249 -11 370 -47 69 -20 168 -45 220 -56 166 -35 213 -50 315 -99 130 -63 218 -86 395 -106 244 -27 283 -21 424 64 105 63 435 142 594 142 53 0 88 -6 130 -23 87 -36 171 -64 231 -78 73 -16 214 -6 321 24 124 35 188 71 301 168 55 48 156 109 178 109 7 0 34 19 61 43 26 23 85 62 131 86 76 39 199 118 317 202 35 25 98 108 138 181 5 9 75 88 156 175 80 87 164 180 185 207 73 94 179 205 245 259 123 100 419 379 443 416 56 89 97 189 124 299 67 276 66 262 66 602 0 271 3 325 18 385 10 38 22 76 27 84 4 8 -1 38 -12 73 -16 48 -36 76 -103 146 -45 48 -94 105 -108 127 -15 22 -38 56 -51 76 -55 82 -186 169 -254 169 -23 0 -57 63 -82 151 -24 87 -25 135 -5 249 8 47 23 153 34 235 11 83 32 195 46 250 49 183 50 225 14 535 -13 115 -66 257 -146 393 -136 232 -167 322 -224 658 -32 195 -44 218 -156 323 -53 50 -124 108 -158 128 -49 30 -73 54 -115 115 -30 43 -88 114 -130 158 -42 44 -120 129 -174 188 -103 113 -133 133 -262 182 -37 14 -91 39 -121 56 -63 36 -69 36 -282 -5 -180 -35 -221 -34 -387 13 -153 43 -309 81 -327 80 -7 0 -42 -17 -79 -38z"></path></g></g></svg>
